<?xml version="1.0" encoding="utf-8"?>
<!-- Generator: Adobe Illustrator 16.0.0, SVG Export Plug-In . SVG Version: 6.00 Build 0)  -->
<!DOCTYPE svg PUBLIC "-//W3C//DTD SVG 1.1//EN" "http://www.w3.org/Graphics/SVG/1.1/DTD/svg11.dtd">
<svg xmlns="http://www.w3.org/2000/svg" xmlns:xlink="http://www.w3.org/1999/xlink" version="1.1" id="Layer_1" x="0px" y="0px" width="1000px" height="1000px" viewBox="0 0 1000 1000" xml:space="preserve">
<rect x="-2" y="-1" fill="none" width="1000" height="1000"/>
<g id="Layer_1_1_">
</g>
<g id="Layer_2">
	<g>
		<g>
			<path fill="#F18F20" d="M141.288,534.216c0,0.402-0.328,0.737-0.738,0.737h-41.8c-0.403,0-0.738-0.335-0.738-0.737v-54.34     c0-0.409,0.334-0.737,0.738-0.737h41.8c0.41,0,0.738,0.328,0.738,0.737V534.216z"/>
			<path fill="#F18F20" d="M200.295,534.216c0,0.402-0.329,0.737-0.738,0.737h-41.8c-0.403,0-0.737-0.335-0.737-0.737V419.643     c0-0.408,0.334-0.736,0.737-0.736h41.8c0.409,0,0.738,0.328,0.738,0.736V534.216z"/>
			<path fill="#F18F20" d="M259.302,534.216c0,0.402-0.328,0.737-0.737,0.737h-41.801c-0.403,0-0.737-0.335-0.737-0.737V325.983     c0-0.409,0.333-0.738,0.737-0.738h41.801c0.409,0,0.737,0.329,0.737,0.738V534.216z"/>
		</g>
		<g>
			<path fill="#F18F20" d="M807.315,553.257c-2.88,8.788-7.469,16.725-13.582,23.372l46.387,64.815     c23.432-20.207,40.28-47.874,46.664-79.399L807.315,553.257z"/>
			<path fill="#F18F20" d="M759.936,471.091c27.033,5.59,47.521,28.387,50.196,56.38l79.389,8.771c0-0.91,0.128-1.805,0.128-2.69     c0-74.428-56.995-135.468-129.713-142.026V471.091L759.936,471.091z"/>
			<path fill="#F18F20" d="M699.95,490.765c8.887-9.772,20.604-16.906,34.057-19.674v-79.566     c-42.326,3.827-79.218,26.139-102.755,58.76L699.95,490.765z"/>
			<path fill="#F18F20" d="M772.718,591.808c-7.896,3.493-16.567,5.498-25.746,5.498c-35.243,0-63.796-28.537-63.796-63.755     c0-7.191,1.447-13.975,3.643-20.418l-68.716-40.479c-8.755,18.463-13.809,39.062-13.809,60.896     c0,78.805,63.87,142.651,142.678,142.651c26.306,0,50.862-7.226,72.04-19.653L772.718,591.808z"/>
		</g>
		<path fill="#F18F20" d="M379.88,470.858l-50.995-72.73c-4.45-6.354-11.848-9.407-19.054-8.626    c-0.185-0.337-0.337-0.686-0.564-1.009l-8.2-12.043c13.127-11.92,21.893-27.728,24.992-45.428    c3.699-21.099-1.063-42.405-13.398-59.98c-12.343-17.573-30.762-29.293-51.86-32.99c-21.154-3.693-42.495,1.086-60.093,13.481    c-17.506,12.342-29.188,30.733-32.866,51.783c-7.638,43.607,21.633,85.306,65.249,92.947c17.684,3.095,35.499,0.239,51.152-8.018    l8.205,12.046c0.285,0.406,0.623,0.748,0.951,1.101c-2.921,6.405-2.495,14.145,1.839,20.333l50.985,72.729    c6.52,9.285,19.333,11.536,28.625,5.021c0.009-0.01,0.02-0.021,0.038-0.028C384.138,492.925,386.373,480.142,379.88,470.858z     M236.632,376.024c-32.468-5.68-54.241-36.712-48.556-69.167c2.75-15.653,11.438-29.342,24.466-38.524    c13.104-9.226,28.984-12.795,44.708-10.041c15.703,2.749,29.404,11.464,38.59,24.554c9.188,13.083,12.74,28.936,9.989,44.636    c-2.737,15.647-11.424,29.319-24.45,38.495C268.259,375.217,252.369,378.781,236.632,376.024z"/>
		<g>
			<g>
				<path fill="#0F3754" d="M252.344,240.242c-21.154-3.694-42.495,1.086-60.093,13.481c-17.506,12.343-29.188,30.734-32.866,51.784      c-7.639,43.606,21.631,85.306,65.247,92.947c21.16,3.702,42.518-1.083,60.122-13.49c0,0,0,0,0-0.003      c17.506-12.331,29.167-30.716,32.849-51.749c3.699-21.099-1.063-42.406-13.397-59.981      C291.862,255.659,273.443,243.939,252.344,240.242z M297.374,329.671c-2.738,15.648-11.424,29.319-24.45,38.496      c-13.121,9.24-29.01,12.804-44.748,10.046c-32.468-5.679-54.241-36.711-48.557-69.165c2.751-15.654,11.438-29.342,24.467-38.524      c13.104-9.226,28.984-12.796,44.707-10.042c15.702,2.749,29.405,11.464,38.591,24.554      C296.573,298.12,300.125,313.971,297.374,329.671z"/>
				<path fill="#DB4126" d="M366.427,501.638c-0.019,0.01-0.029,0.021-0.038,0.029c-9.292,6.514-22.104,4.265-28.624-5.022      l-50.986-72.729c-6.502-9.286-4.253-22.078,4.994-28.593c0.019-0.009,0.029-0.017,0.04-0.029      c9.292-6.517,22.107-4.267,28.616,5.025l50.994,72.729C377.916,482.331,375.681,495.115,366.427,501.638L366.427,501.638z"/>
				<path fill="#F16228" d="M357.682,499.728c-3.563,2.505-8.531,1.625-11.054-1.965l-50.98-72.727      c-2.507-3.578-1.647-8.543,1.925-11.064c3.61-2.525,8.583-1.653,11.096,1.939l50.988,72.724      c2.503,3.588,1.646,8.544-1.934,11.07L357.682,499.728z"/>
				<g>
					<path fill="#1B5987" d="M225.415,393.981c-41.149-7.213-68.766-46.55-61.56-87.694c3.486-19.86,14.498-37.205,31.011-48.842       c0.018-0.02,0.025-0.017,0.04-0.025c16.581-11.683,36.697-16.192,56.646-12.701l-1.746,9.961       c-17.282-3.029-34.713,0.881-49.084,11.003c-0.011,0.012-0.029,0.02-0.034,0.026c-14.312,10.087-23.855,25.118-26.873,42.327       c-6.247,35.649,17.686,69.739,53.346,75.991L225.415,393.981L225.415,393.981z"/>
				</g>
				<g>
					<path fill="none" d="M279.231,377.119"/>
				</g>
				<g>
					<path fill="#F18F20" d="M240.11,376.416c-32.454-5.687-54.234-36.715-48.547-69.171c2.74-15.665,11.421-29.348,24.458-38.524       c5.967-4.209,12.517-7.214,19.367-9.012c-11.135,0.573-21.931,4.218-31.3,10.816c-13.029,9.183-21.716,22.871-24.467,38.524       c-5.686,32.454,16.089,63.486,48.557,69.165c8.442,1.482,16.918,1.083,24.998-0.979       C248.846,377.433,244.472,377.179,240.11,376.416z"/>
					<path fill="#F18F20" d="M236.073,259.658c1.605-0.06,3.214-0.033,4.827,0.036C239.286,259.625,237.678,259.598,236.073,259.658       z"/>
					<path fill="#F18F20" d="M242.429,259.73c2.12,0.138,4.244,0.377,6.364,0.751C246.67,260.108,244.55,259.869,242.429,259.73z"/>
					<path fill="#F18F20" d="M257.941,375.828c-0.953,0.331-1.924,0.607-2.887,0.885       C256.02,376.436,256.988,376.159,257.941,375.828z"/>
					<path fill="#F18F20" d="M263.098,373.779c-0.867,0.395-1.754,0.726-2.639,1.075       C261.344,374.505,262.235,374.174,263.098,373.779z"/>
					<path fill="#F18F20" d="M268.092,371.235c-0.651,0.366-1.325,0.683-1.988,1.028       C266.767,371.918,267.441,371.602,268.092,371.235z"/>
				</g>
				<g>
					<path fill="#0F3754" d="M298.295,404.991c-4.64,3.262-11.043,2.135-14.305-2.51l-10.355-15.205       c-3.25-4.639-2.138-11.038,2.492-14.293c0,0,0.014-0.009,0.022-0.015c4.646-3.259,11.043-2.138,14.312,2.515l10.349,15.198       c3.256,4.636,2.139,11.033-2.492,14.294C298.319,404.978,298.298,404.985,298.295,404.991z"/>
				</g>
			</g>
		</g>
		<g>
			<g>
				<g>
					<path fill="#FFFFFF" d="M503.676,580.545H410.74c-14.749,0-26.746-11.996-26.746-26.746c0-14.749,11.997-26.748,26.746-26.748       h92.937v6.73H410.74c-11.035,0-20.016,8.979-20.016,20.018c0,11.036,8.98,20.017,20.016,20.017h92.937V580.545L503.676,580.545       z"/>
				</g>
				<g>
					<path fill="#FFFFFF" d="M444.976,719.339h-6.73v-92.934c0-14.75,11.994-26.746,26.738-26.746v6.729       c-11.033,0-20.008,8.981-20.008,20.018V719.339L444.976,719.339z"/>
				</g>
				<g>
					<path fill="#FFFFFF" d="M516.104,606.403h-51.292v-6.73h51.292c5.262,0,9.544-4.28,9.544-9.542c0-5.259-4.282-9.54-9.544-9.54       h-51.292v-6.729h51.292c8.975,0,16.274,7.297,16.274,16.27C532.378,599.106,525.077,606.403,516.104,606.403L516.104,606.403z"/>
				</g>
			</g>
			<g>
				<rect x="298.212" y="636.241" fill="#0F3754" width="420.451" height="185.316"/>
				<rect x="298.212" y="630.632" fill="#DB4126" width="420.451" height="185.321"/>
				<g>
					<g>
						<rect x="329.375" y="666.996" fill="#0F3754" width="29.652" height="29.655"/>
						<rect x="370.434" y="666.996" fill="#0F3754" width="29.656" height="29.655"/>
						<rect x="411.494" y="666.996" fill="#0F3754" width="29.653" height="29.655"/>
						<rect x="452.557" y="666.996" fill="#0F3754" width="29.653" height="29.655"/>
						<rect x="493.614" y="666.996" fill="#0F3754" width="29.653" height="29.655"/>
						<rect x="534.679" y="666.996" fill="#0F3754" width="29.647" height="29.655"/>
						<rect x="575.734" y="666.996" fill="#0F3754" width="29.654" height="29.655"/>
						<rect x="616.789" y="666.996" fill="#0F3754" width="29.65" height="29.655"/>
						<rect x="657.854" y="666.996" fill="#0F3754" width="29.65" height="29.655"/>
					</g>
					<g>
						<rect x="329.375" y="707.938" fill="#0F3754" width="29.652" height="29.651"/>
						<rect x="370.434" y="707.938" fill="#0F3754" width="29.656" height="29.651"/>
						<rect x="411.494" y="707.938" fill="#0F3754" width="29.653" height="29.651"/>
						<rect x="452.557" y="707.938" fill="#0F3754" width="29.653" height="29.651"/>
						<rect x="493.614" y="707.938" fill="#0F3754" width="29.653" height="29.651"/>
						<rect x="534.679" y="707.938" fill="#0F3754" width="29.647" height="29.651"/>
						<rect x="575.734" y="707.938" fill="#0F3754" width="29.654" height="29.651"/>
						<rect x="616.789" y="707.938" fill="#0F3754" width="29.65" height="29.651"/>
						<rect x="657.854" y="707.938" fill="#0F3754" width="29.65" height="29.651"/>
					</g>
					<g>
						<rect x="329.375" y="748.872" fill="#0F3754" width="29.652" height="29.659"/>
						<polygon fill="#0F3754" points="552.051,748.872 534.679,748.872 370.434,748.872 370.434,778.531 534.679,778.531         552.051,778.531 564.326,778.531 564.326,748.872       "/>
						<rect x="575.734" y="748.872" fill="#0F3754" width="29.654" height="29.659"/>
						<rect x="616.789" y="748.872" fill="#0F3754" width="29.65" height="29.659"/>
						<rect x="657.854" y="748.872" fill="#0F3754" width="29.65" height="29.659"/>
					</g>
				</g>
				<g>
					<g>
						<rect x="329.375" y="661.894" fill="#F16228" width="29.652" height="29.648"/>
						<rect x="370.434" y="661.894" fill="#F16228" width="29.656" height="29.648"/>
						<rect x="411.494" y="661.894" fill="#F16228" width="29.653" height="29.648"/>
						<rect x="452.557" y="661.894" fill="#F16228" width="29.653" height="29.648"/>
						<rect x="493.614" y="661.894" fill="#F16228" width="29.653" height="29.648"/>
						<rect x="534.679" y="661.894" fill="#F16228" width="29.647" height="29.648"/>
						<rect x="575.734" y="661.894" fill="#F16228" width="29.654" height="29.648"/>
						<rect x="616.789" y="661.894" fill="#F16228" width="29.65" height="29.648"/>
						<rect x="657.854" y="661.894" fill="#F16228" width="29.65" height="29.648"/>
					</g>
					<g>
						<rect x="329.375" y="702.834" fill="#F16228" width="29.652" height="29.653"/>
						<rect x="370.434" y="702.834" fill="#F16228" width="29.656" height="29.653"/>
						<rect x="411.494" y="702.834" fill="#F16228" width="29.653" height="29.653"/>
						<rect x="452.557" y="702.834" fill="#F16228" width="29.653" height="29.653"/>
						<rect x="493.614" y="702.834" fill="#F16228" width="29.653" height="29.653"/>
						<rect x="534.679" y="702.834" fill="#F16228" width="29.647" height="29.653"/>
						<rect x="575.734" y="702.834" fill="#F16228" width="29.654" height="29.653"/>
						<rect x="616.789" y="702.834" fill="#F16228" width="29.65" height="29.653"/>
						<rect x="657.854" y="702.834" fill="#F16228" width="29.65" height="29.653"/>
					</g>
					<g>
						<rect x="329.375" y="743.77" fill="#F16228" width="29.652" height="29.663"/>
						<polygon fill="#F16228" points="552.051,743.77 534.679,743.77 370.434,743.77 370.434,773.433 534.679,773.433         552.051,773.433 564.326,773.433 564.326,743.77       "/>
						<rect x="575.734" y="743.77" fill="#F16228" width="29.654" height="29.663"/>
						<rect x="616.789" y="743.77" fill="#F16228" width="29.65" height="29.663"/>
						<rect x="657.854" y="743.77" fill="#F16228" width="29.65" height="29.663"/>
					</g>
				</g>
			</g>
			<g>
				<path fill="#FFFFFF" d="M617.456,787.693c6.822,0,12.354,5.535,12.354,12.36v90.99c0.01,6.829-5.53,12.364-12.354,12.364l0,0      c-6.82,0-12.36-5.535-12.36-12.364v-90.99C605.096,793.229,610.629,787.693,617.456,787.693L617.456,787.693z"/>
				<path fill="#FFFFFF" d="M574.356,903.95c0,17.728,14.376,32.103,32.104,32.103h52.16c17.732,0,32.101-14.375,32.101-32.103      v-52.167c0-17.726-14.367-32.098-32.101-32.098h-52.16c-17.735,0-32.104,14.368-32.104,32.098V903.95z"/>
				<path fill="#FFFFFF" d="M678.366,811.856c6.829,0,12.354,5.54,12.354,12.359v58.28c0,6.825-5.524,12.359-12.354,12.359l0,0      c-6.829,0-12.359-5.534-12.359-12.359v-58.28C666.007,817.396,671.537,811.856,678.366,811.856L678.366,811.856z"/>
				<path fill="#FFFFFF" d="M648.12,798.944c6.828,0,12.365,5.544,12.365,12.363v90.996c0,6.825-5.537,12.354-12.365,12.354l0,0      c-6.815,0-12.354-5.529-12.354-12.354v-90.996C635.766,804.488,641.305,798.944,648.12,798.944L648.12,798.944z"/>
				<path fill="#FFFFFF" d="M586.782,749.487c6.825,0,12.363,5.542,12.363,12.361v90.994c0,6.828-5.538,12.359-12.363,12.359l0,0      c-6.819,0-12.355-5.531-12.355-12.359V761.85C574.427,755.029,579.963,749.487,586.782,749.487L586.782,749.487z"/>
				<path fill="#FFFFFF" d="M568.659,899.347v-47.147c0-10.076-8.166-18.25-18.252-18.25h-6.078c-0.259,0-0.502,0.031-0.762,0.049      v40.266L568.659,899.347z"/>
				<path fill="#FFFFFF" d="M584.375,892.599l-30.629-30.622c-2.896-2.9-6.53-4.601-10.299-5.14v30.328l40.928,40.915V892.599      L584.375,892.599z"/>
			</g>
			<g>
				<g>
					<path fill="#FFFFFF" d="M472.383,892.398c0,17.726-14.365,32.104-32.104,32.101h-52.161       c-17.728,0.005-32.099-14.375-32.097-32.101l-0.002-52.173c0-17.717,14.366-32.096,32.099-32.096h52.161       c17.737,0,32.104,14.373,32.104,32.096V892.398L472.383,892.398z"/>
					<path fill="#FFFFFF" d="M368.381,767.333c-6.828,0-12.36,5.531-12.36,12.351v91c0,6.826,5.532,12.363,12.36,12.363l0,0       c6.813,0,12.352-5.537,12.352-12.363v-91C380.733,772.864,375.195,767.333,368.381,767.333L368.381,767.333z"/>
					<path fill="#FFFFFF" d="M398.617,737.935c-6.818,0-12.355,5.539-12.355,12.358v90.999c0,6.823,5.538,12.363,12.355,12.363l0,0       c6.826,0,12.36-5.54,12.36-12.363v-90.999C410.978,743.474,405.444,737.935,398.617,737.935L398.617,737.935z"/>
					<path fill="#FFFFFF" d="M459.959,737.935c-6.819,0-12.36,5.539-12.36,12.358v90.999c0,6.823,5.541,12.363,12.36,12.363l0,0       c6.822,0,12.352-5.54,12.352-12.363v-90.999C472.311,743.474,466.781,737.935,459.959,737.935L459.959,737.935z"/>
					<path fill="#FFFFFF" d="M429.285,708.541c-6.822,0-12.352,5.538-12.352,12.363v90.998c-0.003,6.821,5.529,12.36,12.352,12.36       l0,0c6.816,0,12.357-5.539,12.357-12.36v-90.998C441.643,714.079,436.116,708.541,429.285,708.541L429.285,708.541z"/>
					<path fill="#FFFFFF" d="M478.085,887.794v-47.146c0-10.076,8.165-18.246,18.247-18.246h6.076c0.258,0,0.507,0.03,0.764,0.037       v40.271L478.085,887.794z"/>
					<path fill="#FFFFFF" d="M462.366,881.041l30.627-30.621c2.901-2.903,6.531-4.595,10.295-5.141v30.322l-40.922,40.922V881.041       L462.366,881.041z"/>
				</g>
			</g>
		</g>
		<polygon fill="#F18F20" points="457.095,82.805 370.049,169.858 370.049,256.901 370.049,291.34 370.049,533.648 699.932,533.648     699.932,291.34 699.932,172.736 699.932,82.805   "/>
		<g>
			<g>
				<polygon fill="#FFFFFF" points="343.495,554.301 343.495,311.992 343.495,190.51 430.541,103.458 673.377,103.458       673.377,193.389 673.377,311.992 673.377,554.301     "/>
				<g>
					<polygon fill="#2DADB6" points="430.541,190.51 343.495,190.51 430.541,103.458      "/>
					<polygon fill="#D0EAF9" points="343.495,190.51 430.541,190.51 343.495,277.554      "/>
				</g>
			</g>
			<g>
				<path fill="#0F3754" d="M423.677,457.302v-56.815c-27.838,1.832-49.871,24.934-49.871,53.239      c0,29.52,23.922,53.447,53.437,53.447c28.303,0,51.416-22.05,53.247-49.871H423.677L423.677,457.302z"/>
				<path fill="#F89A1F" d="M477.911,443.882c0-22.059-17.873-39.945-39.934-39.945v39.945H477.911z"/>
			</g>
			<g>
				<path fill="#A6D9E8" d="M449.704,292.32c-1.075,3.287-2.792,6.254-5.079,8.732l17.344,24.234      c8.756-7.552,15.06-17.893,17.454-29.68L449.704,292.32z"/>
				<path fill="#F89A1F" d="M431.99,261.6c10.107,2.092,17.771,10.615,18.771,21.084l29.673,3.277c0-0.34,0.055-0.677,0.055-1.006      c0-27.823-21.316-50.651-48.499-53.098V261.6z"/>
				<path fill="#16AFBE" d="M409.573,268.959c3.312-3.656,7.698-6.324,12.721-7.359v-29.742      c-15.817,1.424-29.609,9.768-38.406,21.97L409.573,268.959z"/>
				<path fill="#0F3754" d="M436.771,306.731c-2.944,1.312-6.194,2.06-9.623,2.06c-13.173,0-23.85-10.671-23.85-23.836      c0-2.691,0.547-5.224,1.365-7.635l-25.693-15.134c-3.279,6.906-5.163,14.602-5.163,22.77c0,29.455,23.876,53.337,53.342,53.337      c9.833,0,19.016-2.706,26.934-7.368L436.771,306.731z"/>
			</g>
			<g>
				<rect x="505.615" y="231.857" fill="#16AFBE" width="128.585" height="13.196"/>
				<rect x="505.615" y="273.318" fill="#A6D9E8" width="128.585" height="13.19"/>
				<rect x="505.615" y="314.778" fill="#A6D9E8" width="128.585" height="13.188"/>
			</g>
			<g>
				<rect x="505.615" y="400.485" fill="#16AFBE" width="89.47" height="13.197"/>
				<rect x="505.615" y="441.945" fill="#A6D9E8" width="128.585" height="13.202"/>
				<rect x="505.615" y="483.408" fill="#A6D9E8" width="128.585" height="13.195"/>
			</g>
		</g>
		<g>
			<path fill="#2DADB6" d="M656.357,416.493l122.944-232.775c-5.057-1.748-10.651-0.008-13.665,4.296l-118.19,223.771     L656.357,416.493z"/>
			<path fill="#51C4D2" d="M626.243,400.589l21.201,11.196l118.19-223.771l-0.007,0.005c0.015-0.045,0.021-0.089,0.035-0.132     c-0.022,0.035-0.056,0.083-0.085,0.121c2.091-5.5-0.281-11.85-5.713-14.735c-5.45-2.867-12.028-1.239-15.401,3.582     c0.014-0.043,0.036-0.099,0.057-0.138c-0.03,0.04-0.068,0.066-0.086,0.106l-0.006-0.005L626.243,400.589z"/>
			<path fill="#2DADB6" d="M744.43,176.819c1.854-4.918,0.13-10.529-4.16-13.711l-122.938,232.77l8.912,4.71L744.43,176.819z"/>
			<path fill="#FFFFFF" d="M740.256,163.09c4.304,3.178,6.032,8.799,4.174,13.729l0.006,0.005c0.018-0.04,0.056-0.067,0.086-0.106     c-0.02,0.04-0.043,0.095-0.057,0.138c3.373-4.82,9.951-6.448,15.401-3.582c5.432,2.885,7.804,9.234,5.713,14.735     c0.029-0.038,0.062-0.086,0.085-0.121c-0.015,0.042-0.021,0.086-0.035,0.132l0.007-0.005c3.02-4.311,8.633-6.056,13.692-4.29     l-6.712-34.6L740.256,163.09z"/>
			<path fill="#2DADB6" d="M775.911,166.109l-3.295-16.984l-15.885,6.857c2.695,2.348,5.688,4.443,8.997,6.186     C769.027,163.908,772.449,165.204,775.911,166.109z"/>
			<g>
				
					<rect x="643.782" y="413.548" transform="matrix(-0.8843 -0.467 0.467 -0.8843 1026.3816 1094.4741)" fill="#0F3754" width="10.073" height="12.998"/>
				
					<rect x="621.734" y="405.613" transform="matrix(-0.8843 -0.467 0.467 -0.8843 1001.6484 1072.4749)" fill="#154F78" width="23.987" height="12.996"/>
				<polygon fill="#0F3754" points="626.164,400.729 617.254,396.022 611.187,407.519 620.093,412.22     "/>
			</g>
		</g>
		<g>
			<path fill="#F18F20" d="M784.94,305.164V268.4c-18.014,1.181-32.27,16.135-32.27,34.453c0,19.103,15.479,34.586,34.586,34.586     c18.312,0,33.271-14.262,34.453-32.275H784.94z"/>
			<path fill="#F18F20" d="M820.038,296.48c0-14.274-11.56-25.85-25.84-25.85v25.85H820.038z"/>
		</g>
	</g>
</g>
</svg>
